<svg xmlns="http://www.w3.org/2000/svg" viewBox="0 0 340 246.17">
    <defs>
        <style>.cls-1{fill:#73b35a;}.cls-2{fill:#d13c4b;}.cls-3{fill:#00908c;}.cls-4{fill:#3a3856;}</style>
    </defs>
    <title>Recurso 2</title>
    <g id="Capa_2" data-name="Capa 2">
        <g id="Capa_3" data-name="Capa 3">
            <path class="cls-1" d="M0,0V106.83H106.83V0ZM97.41,97.41h-88v-88h88Z"/>
            <path class="cls-2" d="M116.4,0V106.83H223.23V0Zm97.41,97.41h-88v-88h88Z"/>
            <path class="cls-3" d="M233.17,0V106.83H340V0Zm97.4,97.41h-88v-88h88Z"/>
            <path class="cls-3" d="M256.72,15.68H280V72.57h36.41V91.16H256.72Z"/>
            <path class="cls-1" d="M24.58,15.68H82.25V31.9H48V45.08H77.25V60.32H48V91.16H24.58Z"/>
            <path class="cls-2" d="M135.58,66.19l22.19-1.39c.48,3.6,1.46,6.35,2.93,8.23q3.6,4.59,10.3,4.59c3.33,0,5.89-.79,7.7-2.35a7,7,0,0,0,2.7-5.43,6.93,6.93,0,0,0-2.57-5.25c-1.72-1.55-5.7-3-12-4.38Q151.54,56.76,145,51.05a18.45,18.45,0,0,1-6.59-14.57,19.76,19.76,0,0,1,3.37-11,22.37,22.37,0,0,1,10.14-8.14q6.78-3,18.56-3,14.47,0,22.07,5.38t9,17.12l-22,1.29c-.59-3.4-1.81-5.87-3.68-7.42s-4.46-2.31-7.75-2.31c-2.71,0-4.76.57-6.13,1.72a5.3,5.3,0,0,0-2.06,4.2,4.21,4.21,0,0,0,1.7,3.24c1.1,1,3.71,1.92,7.83,2.78q15.28,3.3,21.9,6.67A23.12,23.12,0,0,1,201,55.42a21.22,21.22,0,0,1,3,11.18A23.87,23.87,0,0,1,200,80a25.11,25.11,0,0,1-11.23,9.3q-7.2,3.16-18.17,3.16Q151.38,92.44,144,85A29.23,29.23,0,0,1,135.58,66.19Z"/>
            <path class="cls-4" d="M5.3,126.68v12.94H23.92v4.56H5.3v15H0V122.06H26.21v4.62Z"/>
            <path class="cls-4" d="M60.63,154.58v4.62H33.68V122.06H59.89v4.62H39v11.4H57.61v4.51H39v12Z"/>
            <path class="cls-4" d="M65.83,155l2-4.14A19.08,19.08,0,0,0,80,155.11c6.42,0,9.18-2.49,9.18-5.73,0-9.07-22.49-3.34-22.49-17.13,0-5.73,4.45-10.61,14.21-10.61a21.89,21.89,0,0,1,11.94,3.29l-1.75,4.24a19.19,19.19,0,0,0-10.19-3c-6.31,0-9,2.65-9,5.89,0,9.07,22.49,3.39,22.49,17,0,5.68-4.56,10.56-14.38,10.56C74.37,159.62,68.8,157.71,65.83,155Z"/>
            <path class="cls-4" d="M109,126.68H96.27v-4.62H127v4.62H114.25V159.2H109Z"/>
            <path class="cls-4" d="M132.76,122.06h5.31V159.2h-5.31Z"/>
            <path class="cls-4" d="M181.09,122.06,164.8,159.2h-5.25l-16.34-37.14h5.73l13.37,30.5,13.47-30.5Z"/>
            <path class="cls-4" d="M208.3,149.91H188.57l-4.09,9.29H179l16.81-37.14h5.25L218,159.2h-5.57Zm-1.86-4.24-8-18.2-8,18.2Z"/>
            <path class="cls-4" d="M223.47,122.06h5.3v32.52h20.1v4.62h-25.4Z"/>
            <path class="cls-4" d="M269.24,122.06h15.65c11.94,0,20.05,7.54,20.05,18.57s-8.11,18.57-20.05,18.57H269.24Zm15.33,32.52c9.18,0,15.07-5.62,15.07-14s-5.89-13.95-15.07-13.95h-10v27.9Z"/>
            <path class="cls-4" d="M340,154.58v4.62H313.05V122.06h26.21v4.62h-20.9v11.4H337v4.51H318.36v12Z"/>
            <path class="cls-4" d="M0,197.78l1.38-2.91a13.42,13.42,0,0,0,8.6,3c4.51,0,6.45-1.75,6.45-4,0-6.38-15.8-2.35-15.8-12,0-4,3.13-7.45,10-7.45A15.35,15.35,0,0,1,19,176.69l-1.23,3a13.47,13.47,0,0,0-7.15-2.12c-4.44,0-6.34,1.86-6.34,4.13,0,6.37,15.8,2.39,15.8,12,0,4-3.2,7.42-10.1,7.42C6,201.06,2.09,199.71,0,197.78Z"/>
            <path class="cls-4" d="M23.39,187.72c0-7.64,5.89-13.34,13.9-13.34S51.11,180,51.11,187.72s-5.88,13.34-13.82,13.34S23.39,195.36,23.39,187.72Zm24,0a9.79,9.79,0,0,0-10.1-10,10,10,0,1,0,0,20A9.8,9.8,0,0,0,47.39,187.72Z"/>
            <path class="cls-4" d="M60.54,177.92V187H73.61v3.2H60.54v10.55H56.81V174.68h18.4v3.24Z"/>
            <path class="cls-4" d="M85.83,177.92H76.89v-3.24H98.46v3.24H89.52v22.84H85.83Z"/>
            <path class="cls-4" d="M139.06,174.68l-8.71,26.08h-3.91l-7.12-20.83-7.12,20.83h-4L99.5,174.68h3.84l7,21.2,7.34-21.2h3.42l7.2,21.31,7.19-21.31Z"/>
            <path class="cls-4" d="M159.4,194.24H145.54l-2.86,6.52h-3.84l11.81-26.08h3.69l11.84,26.08h-3.91Zm-1.3-3-5.63-12.78-5.62,12.78Z"/>
            <path class="cls-4" d="M187.49,200.76l-5.62-8c-.53,0-1.09.07-1.64.07h-6.45v7.94h-3.72V174.68h10.17c6.78,0,10.87,3.43,10.87,9.09a8.22,8.22,0,0,1-5.73,8.23l6.18,8.76Zm-.11-17c0-3.73-2.5-5.85-7.27-5.85h-6.33v11.74h6.33C184.88,189.66,187.38,187.49,187.38,183.77Z"/>
            <path class="cls-4" d="M216.06,197.52v3.24H197.14V174.68h18.4v3.24H200.86v8h13.08v3.17H200.86v8.42Z"/>
            <path class="cls-4" d="M232.12,174.68h3.72v22.84H250v3.24H232.12Z"/>
            <path class="cls-4" d="M254.24,174.68H258v26.08h-3.73Z"/>
            <path class="cls-4" d="M288.22,193.72c0,4.47-3.39,7-10,7H265.79V174.68h11.7c6,0,9.35,2.53,9.35,6.74a6.17,6.17,0,0,1-3.5,5.81A6.31,6.31,0,0,1,288.22,193.72Zm-18.7-16V186h7.64c3.8,0,6-1.41,6-4.17s-2.16-4.17-6-4.17Zm14.94,15.72c0-3-2.24-4.36-6.37-4.36h-8.57v8.68h8.57C282.22,197.74,284.46,196.44,284.46,193.42Z"/>
            <path class="cls-4" d="M311.43,200.76l-5.63-8c-.52,0-1.08.07-1.64.07h-6.44v7.94H294V174.68h10.17c6.78,0,10.88,3.43,10.88,9.09A8.22,8.22,0,0,1,309.3,192l6.19,8.76Zm-.11-17c0-3.73-2.5-5.85-7.27-5.85h-6.33v11.74h6.33C308.82,189.66,311.32,187.49,311.32,183.77Z"/>
            <path class="cls-4" d="M340,197.52v3.24H321.07V174.68h18.41v3.24H324.8v8h13.08v3.17H324.8v8.42Z"/>
            <path class="cls-4" d="M31.19,217.15,18.83,245.68H12.31L0,217.15H7.13l8.69,20.38,8.8-20.38Z"/>
            <path class="cls-4" d="M51.4,239.57H38.15l-2.52,6.11H28.86l12.72-28.53H48.1l12.76,28.53H53.93Zm-2.08-5L44.8,223.63l-4.53,10.92Z"/>
            <path class="cls-4" d="M63.83,217.15h6.61V240.3H84.75v5.38H63.83Z"/>
            <path class="cls-4" d="M88.45,217.15h6.61V240.3h14.31v5.38H88.45Z"/>
            <path class="cls-4" d="M132.11,239.57H118.86l-2.52,6.11h-6.77l12.72-28.53h6.52l12.76,28.53h-6.93Zm-2.08-5-4.52-10.92L121,234.55Z"/>
            <path class="cls-4" d="M162.72,245.68l-5.5-8h-6.07v8h-6.61V217.15h12.35c7.63,0,12.4,3.95,12.4,10.35a9.28,9.28,0,0,1-5.87,9l6.4,9.17Zm-6.19-23.15h-5.38v9.94h5.38c4,0,6.07-1.87,6.07-5S160.56,222.53,156.53,222.53Z"/>
            <path class="cls-4" d="M180,222.53h-9.14v-5.38h24.87v5.38h-9.13v23.15H180Z"/>
            <path class="cls-4" d="M216.65,239.57H203.4l-2.52,6.11h-6.77l12.72-28.53h6.52l12.76,28.53h-6.93Zm-2.08-5-4.52-10.92-4.53,10.92Z"/>
            <path class="cls-4" d="M260.15,240.3v5.38H238.58V241.4l11-10.39c2.53-2.41,3-3.88,3-5.26,0-2.24-1.55-3.55-4.56-3.55a7,7,0,0,0-5.91,2.85L237.28,222c2.2-3.22,6.19-5.3,11.33-5.3,6.36,0,10.6,3.26,10.6,8.44,0,2.77-.78,5.29-4.77,9l-6.56,6.2Z"/>
            <path class="cls-4" d="M262.79,231.41c0-9.41,5.22-14.75,12.23-14.75s12.23,5.34,12.23,14.75-5.17,14.76-12.23,14.76S262.79,240.83,262.79,231.41Zm17.82,0c0-6.48-2.28-9.17-5.59-9.17s-5.54,2.69-5.54,9.17,2.28,9.18,5.54,9.18S280.61,237.9,280.61,231.41Z"/>
            <path class="cls-4" d="M311.55,240.3v5.38H290V241.4L301,231c2.53-2.41,3-3.88,3-5.26,0-2.24-1.55-3.55-4.57-3.55a7,7,0,0,0-5.91,2.85L288.68,222c2.2-3.22,6.19-5.3,11.33-5.3,6.36,0,10.6,3.26,10.6,8.44,0,2.77-.77,5.29-4.77,9l-6.56,6.2Z"/>
            <path class="cls-4" d="M340,239.69h-4.65v6h-6.44v-6H313.54v-4.44L327,217.15h6.93l-12.48,17.16h7.67V229h6.23v5.34H340Z"/>
        </g>
    </g>
</svg>